<svg width="43" height="45" viewBox="0 0 43 45" fill="none" xmlns="http://www.w3.org/2000/svg">
<g filter="url(#filter0_d_0_4894)">
<circle cx="21.1421" cy="4.99996" r="3" transform="rotate(45 21.1421 4.99996)" fill="#36536B"/>
<circle cx="28.2133" cy="12.071" r="3" transform="rotate(45 28.2133 12.071)" fill="#36536B"/>
<circle cx="35.2843" cy="19.1422" r="3" transform="rotate(45 35.2843 19.1422)" fill="#36536B"/>
<circle cx="14.071" cy="12.071" r="3" transform="rotate(45 14.071 12.071)" fill="#36536B"/>
<circle cx="21.1421" cy="19.1422" r="3" transform="rotate(45 21.1421 19.1422)" fill="#36536B"/>
<circle cx="28.2133" cy="26.2132" r="3" transform="rotate(45 28.2133 26.2132)" fill="#36536B"/>
<circle cx="7" cy="19.1422" r="3" transform="rotate(45 7 19.1422)" fill="#36536B"/>
<circle cx="14.071" cy="26.2132" r="3" transform="rotate(45 14.071 26.2132)" fill="#36536B"/>
<circle cx="21.1421" cy="33.2843" r="3" transform="rotate(45 21.1421 33.2843)" fill="#36536B"/>
</g>
<defs>
<filter id="filter0_d_0_4894" x="0" y="2" width="42.2843" height="42.2843" filterUnits="userSpaceOnUse" color-interpolation-filters="sRGB">
<feFlood flood-opacity="0" result="BackgroundImageFix"/>
<feColorMatrix in="SourceAlpha" type="matrix" values="0 0 0 0 0 0 0 0 0 0 0 0 0 0 0 0 0 0 127 0" result="hardAlpha"/>
<feOffset dy="4"/>
<feGaussianBlur stdDeviation="2"/>
<feComposite in2="hardAlpha" operator="out"/>
<feColorMatrix type="matrix" values="0 0 0 0 0 0 0 0 0 0 0 0 0 0 0 0 0 0 0.25 0"/>
<feBlend mode="normal" in2="BackgroundImageFix" result="effect1_dropShadow_0_4894"/>
<feBlend mode="normal" in="SourceGraphic" in2="effect1_dropShadow_0_4894" result="shape"/>
</filter>
</defs>
</svg>
